# xmcd CD database file
#
# Track frame offsets:
#	150
#	22736
#	45377
#	67963
#
# Disc length: 1205 seconds
#
# Revision: 6
# Processed by: cddbd v1.5.2PL0 Copyright (c) Steve Scherf et al.
# Submitted via: CDex 1.51
#
DISCID=2204b304
DTITLE=MAX - Spring Rain (Single)
DYEAR=2002
DGENRE=J-Pop
TTITLE0=Spring Rain
TTITLE1=Party Tune
TTITLE2=Spring Rain (Instrumental)
TTITLE3=Party Tune (Instrumental)
EXTD=YEAR: 2002
EXTT0=
EXTT1=
EXTT2=
EXTT3=
PLAYORDER=
